PathFileType	4	(X/Y/Z)	/Users/itak/Documents/Research/Walk-IL/dataset/trc/00177_00008.trc
DataRate	CameraRate	NumFrames	NumMarkers	Units	OrigDataRate	OrigDataStartFrame	OrigNumFrames
100.000000	100.000000	4	53	mm	100.000000	367	588
Frame#	Time	RPSI			LPSI			L3			STRN			T10			C7			CLAV			RBAK			LBAK			LSHO			LUPA			LAEL			LAOL			LWTS			LWPS			LFRA			LIFD			LHPS			LHTS			RSHO			RUPA			RAEL			RAOL			RWTS			RWPS			RFRA			RIFD			RHTS			RHPS			RBHD			LFHD			RFHD			LBHD			LHIP			RHIP			RASI			LASI			LKNE			LTHI			LANK			LTIP			LTOE			LMT1			LMT5			LHEE			RKNE			RTHI			RANK			RTIP			RTOE			RMT1			RMT5			RHEE			
		X1	Y1	Z1	X2	Y2	Z2	X3	Y3	Z3	X4	Y4	Z4	X5	Y5	Z5	X6	Y6	Z6	X7	Y7	Z7	X8	Y8	Z8	X9	Y9	Z9	X10	Y10	Z10	X11	Y11	Z11	X12	Y12	Z12	X13	Y13	Z13	X14	Y14	Z14	X15	Y15	Z15	X16	Y16	Z16	X17	Y17	Z17	X18	Y18	Z18	X19	Y19	Z19	X20	Y20	Z20	X21	Y21	Z21	X22	Y22	Z22	X23	Y23	Z23	X24	Y24	Z24	X25	Y25	Z25	X26	Y26	Z26	X27	Y27	Z27	X28	Y28	Z28	X29	Y29	Z29	X30	Y30	Z30	X31	Y31	Z31	X32	Y32	Z32	X33	Y33	Z33	X34	Y34	Z34	X35	Y35	Z35	X36	Y36	Z36	X37	Y37	Z37	X38	Y38	Z38	X39	Y39	Z39	X40	Y40	Z40	X41	Y41	Z41	X42	Y42	Z42	X43	Y43	Z43	X44	Y44	Z44	X45	Y45	Z45	X46	Y46	Z46	X47	Y47	Z47	X48	Y48	Z48	X49	Y49	Z49	X50	Y50	Z50	X51	Y51	Z51	X52	Y52	Z52	X53	Y53	Z53	

368	3.67	-684.7945556640625	1060.858642578125	325.6460876464844	-684.9676513671875	1062.8408203125	203.6028137207031	-680.255615234375	1103.023193359375	265.5468444824219	-403.3722229003906	1293.760620117188	248.2049255371094	-696.84716796875	1261.847045898438	254.0466613769531	-616.40234375	1526.200317382812	237.8630065917969	-424.980224609375	1408.867309570312	237.5059051513672	-691.2029418945312	1356.47607421875	349.0695190429688	-627.3700561523438	1501.418090820312	137.2450561523438	-553.2656860351562	1483.87109375	56.98476409912109	-598.608154296875	1355.641357421875	-15.71368312835693	-605.8462524414062	1140.571655273438	-38.27801513671875	-644.7122192382812	1125.344848632812	39.96192932128906	-509.7536010742188	900.9901123046875	-30.6294994354248	-596.8572387695312	887.4288940429688	-59.44537734985352	-602.1856079101562	1030.385498046875	-57.65075302124023	-502.5542602539062	714.0504150390625	-19.64378929138184	-579.8939208984375	816.178955078125	-61.18478393554688	-506.6485595703125	823.1427001953125	-55.15998458862305	-552.282958984375	1500.921875	417.5213623046875	-575.4220581054688	1435.630249023438	486.0021667480469	-607.9508056640625	1149.67919921875	546.4686279296875	-605.8203735351562	1138.65234375	446.5141906738281	-446.9043884277344	938.3955688476562	547.5692749023438	-522.965576171875	911.2178344726562	583.568115234375	-581.2789916992188	1077.84814453125	567.8133544921875	-404.6315307617188	756.3338623046875	523.764892578125	-409.6162719726562	849.2626953125	560.0003051757812	-484.7740478515625	831.7744750976562	584.2410278320312	-548.3680419921875	1678.555541992188	321.0013427734375	-407.8154907226562	1733.588012695312	164.5798645019531	-384.9806518554688	1730.988891601562	292.4913940429688	-579.9114990234375	1688.57373046875	186.626708984375	-591.6251831054688	996.73876953125	82.68898773193359	-535.9158325195312	1013.352844238281	450.0834655761719	-456.4581604003906	1038.140991210938	391.8679504394531	-461.2367248535156	1029.614379882812	132.0564575195312	-512.1255493164062	496.8638000488281	127.5096969604492	-529.9221801757812	640.0615234375	97.66764831542969	-627.443359375	40.20793914794922	143.56689453125	-563.1820678710938	268.9716796875	126.9975357055664	-410.0010375976562	43.56280136108398	159.2281036376953	-455.3546142578125	44.00825881958008	210.5230255126953	-520.2597045898438	30.9793586730957	99.08358001708984	-674.6001586914062	42.45426940917969	216.6329650878906	-332.1637573242188	552.1649169921875	461.4540710449219	-424.5119323730469	813.4629516601562	464.8753051757812	-617.2766723632812	140.8081817626953	423.8763122558594	-357.6333923339844	427.0180053710938	447.0740661621094	-407.4166259765625	80.39940643310547	442.5407104492188	-445.9543151855469	93.16988372802734	384.3785400390625	-527.769775390625	88.46031188964844	477.186767578125	-645.9456176757812	163.4400482177734	344.2284240722656	
369	3.68	-690.751220703125	1061.0966796875	327.3046264648438	-691.6510009765625	1063.053466796875	205.1773223876953	-686.5946044921875	1103.24609375	267.1776428222656	-410.1596374511719	1294.19775390625	248.2381439208984	-703.5534057617188	1261.9609375	255.5618286132812	-623.5692138671875	1526.446899414062	238.7582092285156	-431.9660949707031	1409.271728515625	237.5895690917969	-697.6521606445312	1356.661987304688	350.471923828125	-634.8948974609375	1501.569580078125	138.1936950683594	-561.080078125	1484.031860351562	57.65382766723633	-606.7328491210938	1355.87646484375	-14.93757152557373	-614.5629272460938	1141.134887695312	-38.04201507568359	-653.1156616210938	1125.847778320312	40.41435623168945	-521.8988037109375	900.1238403320312	-31.94062805175781	-609.2515258789062	888.2743530273438	-60.65771484375	-612.3052978515625	1031.194458007812	-57.91095352172852	-518.2203979492188	712.9343872070312	-21.85495567321777	-593.6288452148438	816.7670288085938	-62.85013198852539	-520.2330932617188	822.2903442382812	-56.83053588867188	-558.5651245117188	1501.370483398438	418.1272277832031	-581.320556640625	1436.137817382812	486.8124694824219	-613.3514404296875	1150.298706054688	548.1832275390625	-611.8196411132812	1139.051513671875	448.2377014160156	-451.3789367675781	939.6885986328125	548.4230346679688	-527.0830688476562	912.1708374023438	584.9605712890625	-586.2569580078125	1078.530151367188	569.4764404296875	-408.0182800292969	758.052734375	524.7061157226562	-413.5249938964844	850.8491821289062	560.81689453125	-488.5133972167969	832.9476318359375	585.5231323242188	-555.83544921875	1678.799438476562	321.432373046875	-415.4816589355469	1734.229370117188	164.9570465087891	-392.5453796386719	1731.57177734375	292.8557434082031	-587.4771118164062	1688.850952148438	187.1074371337891	-598.7275390625	997.146484375	83.72614288330078	-541.125	1013.374389648438	451.0587158203125	-462.085693359375	1038.337280273438	392.3808898925781	-468.2655944824219	1029.992431640625	132.6721038818359	-515.8170166015625	497.531005859375	127.7845458984375	-534.8870849609375	640.5728149414062	98.0023193359375	-627.5584716796875	40.08036422729492	143.4671478271484	-565.0242919921875	269.2887268066406	127.0834808349609	-410.1369934082031	43.62470245361328	159.2899780273438	-455.5438537597656	44.04111480712891	210.4776458740234	-520.267822265625	31.02642250061035	99.11210632324219	-674.8458251953125	42.31836700439453	216.4572143554688	-341.9195556640625	549.6947021484375	461.3865661621094	-430.9980163574219	812.0565795898438	464.8938293457031	-640.93994140625	148.7395629882812	427.7123718261719	-370.9888916015625	425.5143127441406	447.3315124511719	-433.3711547851562	81.31178283691406	442.883544921875	-472.2943115234375	95.220947265625	385.38916015625	-553.0586547851562	93.015380859375	479.5407409667969	-670.2430419921875	172.4962310791016	348.7015380859375	
370	3.69	-696.6953125	1061.261962890625	328.9746398925781	-698.2789306640625	1063.18896484375	206.7685089111328	-692.88623046875	1103.389404296875	268.8492431640625	-416.9381713867188	1294.579467773438	248.3374786376953	-710.2469482421875	1262.013427734375	257.1929626464844	-630.7296142578125	1526.62353515625	239.7609710693359	-438.9419250488281	1409.626586914062	237.731201171875	-704.0411987304688	1356.800048828125	352.0082397460938	-642.4365844726562	1501.653442382812	139.2596740722656	-568.9637451171875	1484.129028320312	58.41660308837891	-614.9261474609375	1356.039916992188	-14.04281425476074	-623.3258056640625	1141.632446289062	-37.67422485351562	-661.526123046875	1126.256713867188	41.01015090942383	-533.8901977539062	899.33740234375	-33.17999649047852	-621.5001220703125	889.1009521484375	-61.6943244934082	-622.4010620117188	1031.952392578125	-58.03726959228516	-533.548583984375	711.976806640625	-24.02403831481934	-607.1400756835938	817.3935546875	-64.35653686523438	-533.6312866210938	821.5516357421875	-58.4378662109375	-564.7947387695312	1501.788452148438	418.8125610351562	-587.1255493164062	1436.607299804688	487.7089538574219	-618.565185546875	1150.876586914062	549.9440307617188	-617.6470947265625	1139.41650390625	450.0314636230469	-455.8475952148438	940.8198852539062	549.3599853515625	-531.2327270507812	913.0398559570312	586.4339599609375	-591.1005859375	1079.177978515625	571.1952514648438	-411.6492004394531	759.5147094726562	525.7186889648438	-417.5301513671875	852.2255859375	561.7118530273438	-492.3692321777344	833.994384765625	586.88720703125	-563.2776489257812	1678.966430664062	321.9422302246094	-423.1316833496094	1734.806396484375	165.4231719970703	-400.0947265625	1732.074462890625	293.3081359863281	-595.0262451171875	1689.072998046875	187.6639862060547	-605.6819458007812	997.518798828125	84.80931091308594	-546.3810424804688	1013.272338867188	452.1021118164062	-467.7276000976562	1038.4794921875	393.0465393066406	-475.1597290039062	1030.360107421875	133.4150695800781	-519.3680419921875	498.1632995605469	128.1293792724609	-539.6651000976562	641.0413208007812	98.38787078857422	-627.662353515625	39.96264266967773	143.3781433105469	-566.748779296875	269.599609375	127.2020034790039	-410.258056640625	43.69525909423828	159.3634948730469	-455.654052734375	44.09551620483398	210.4304962158203	-520.266357421875	31.0927677154541	99.15618133544922	-675.1165771484375	42.22208023071289	216.2524871826172	-352.1664123535156	546.949951171875	461.2516784667969	-437.6753845214844	810.4483642578125	465.112060546875	-664.3308715820312	156.3032379150391	431.7462463378906	-384.6925048828125	423.8168029785156	447.6134338378906	-459.1382141113281	82.20985412597656	443.5245361328125	-498.4539489746094	97.26039123535156	386.72509765625	-577.9619140625	97.50810241699219	482.218505859375	-694.1138916015625	181.2966766357422	353.4744873046875	
371	3.7	-702.6387329101562	1061.36083984375	330.6409301757812	-704.8528442382812	1063.24658203125	208.3628387451172	-699.1471557617188	1103.454345703125	270.542236328125	-423.7063903808594	1294.928955078125	248.5097351074219	-716.9268798828125	1262.01171875	258.9345703125	-637.88916015625	1526.73974609375	240.8745880126953	-445.9132080078125	1409.949584960938	237.9378051757812	-710.3763427734375	1356.895751953125	353.675048828125	-650.0010986328125	1501.681762695312	140.4500885009766	-576.9222412109375	1484.179077148438	59.28035736083984	-623.2012329101562	1356.155029296875	-13.02678203582764	-632.155029296875	1142.085571289062	-37.16093826293945	-669.9506225585938	1126.593505859375	41.76323699951172	-545.70458984375	898.6536254882812	-34.34638595581055	-633.5992431640625	889.91064453125	-62.5273551940918	-632.4874267578125	1032.669921875	-58.01813507080078	-548.471923828125	711.1887817382812	-26.13398361206055	-620.4010009765625	818.0557250976562	-65.67263793945312	-546.8201904296875	820.943115234375	-59.97797775268555	-570.9854125976562	1502.186401367188	419.5807495117188	-592.8515625	1437.052612304688	488.6929321289062	-623.5921630859375	1151.419311523438	551.739990234375	-623.2974243164062	1139.763305664062	451.8827209472656	-460.3150024414062	941.7904052734375	550.3718872070312	-535.420166015625	913.8328247070312	587.9864501953125	-595.8128662109375	1079.80029296875	572.9597778320312	-415.566650390625	760.702880859375	526.79150390625	-421.6465454101562	853.3829956054688	562.67138671875	-496.3514404296875	834.9170532226562	588.3263549804688	-570.6905517578125	1679.076416015625	322.5309448242188	-430.7583312988281	1735.314575195312	165.9710388183594	-407.6205444335938	1732.501831054688	293.8406372070312	-602.5532836914062	1689.252685546875	188.2952270507812	-612.4890747070312	997.8487548828125	85.92438507080078	-551.704833984375	1013.073181152344	453.1997375488281	-473.3871154785156	1038.597290039062	393.8534240722656	-481.9016723632812	1030.727294921875	134.2853546142578	-522.7755126953125	498.7606506347656	128.5554046630859	-544.2486572265625	641.4656982421875	98.8345947265625	-627.7603149414062	39.86505889892578	143.2940521240234	-568.3585815429688	269.9020385742188	127.3612594604492	-410.3607788085938	43.77896118164062	159.4542846679688	-455.6821899414062	44.17438507080078	210.3854064941406	-520.2550659179688	31.18270111083984	99.21945190429688	-675.395263671875	42.15016555786133	216.0361328125	-362.9031066894531	543.9766845703125	461.0637817382812	-444.5447692871094	808.6768188476562	465.5021057128906	-687.4390258789062	163.4490203857422	435.9713745117188	-398.7251281738281	421.9563903808594	447.9310913085938	-484.6639709472656	83.04065704345703	444.4706115722656	-524.3616333007812	99.23655700683594	388.3751220703125	-602.3786010742188	101.9048461914062	485.1764831542969	-717.5164184570312	189.7623748779297	358.4870910644531	
